<svg version="1.1" id="battery" viewBox="0 11 64 16" xmlns="http://www.w3.org/2000/svg">
<path style="stroke:currentColor; fill:currentColor"
  d="m 53.079275,27.047683 v -6.19511 h 3.791377 V 9.4784421 H 53.079275 V 3.283332 C 53.079275,1.47295 51.606325,0 49.795942,0 H 3.2833324 C 1.4729499,0 0,1.47295 0,3.283332 v 23.764351 c 0,1.810382 1.4729499,3.283332 3.2833324,3.283332 H 49.795942 c 1.810383,0 3.283333,-1.47295 3.283333,-3.283332 z M 3.2833324,28.435327 c -0.7658581,0 -1.3876439,-0.621786 -1.3876439,-1.387644 V 3.283332 c 0,-0.765858 0.6217858,-1.387644 1.3876439,-1.387644 H 49.795942 c 0.765859,0 1.387644,0.621786 1.387644,1.387644 v 6.1951101 11.3741309 6.19511 c 0,0.765858 -0.621785,1.387644 -1.387644,1.387644 z"
  />
<rect
  style="fill:currentColor;fill-opacity:1;stroke:none;stroke-width:4;stroke-linecap:round;stroke-opacity:1;paint-order:stroke fill markers;stop-color:currentColor"
  class="low"
  width="10.106444"
  height="21.714767"
  x="4.2582707"
  y="4.3834324"
  ry="0" />
<rect
  style="fill:currentColor;fill-opacity:1;stroke:none;stroke-width:4;stroke-linecap:round;stroke-opacity:1;paint-order:stroke fill markers;stop-color:currentColor"
  class="medium"
  width="10.106444"
  height="21.714767"
  x="15.670976"
  y="4.3834324"
  ry="0" />
<rect
  style="fill:currentColor;fill-opacity:1;stroke:none;stroke-width:4;stroke-linecap:round;stroke-opacity:1;paint-order:stroke fill markers;stop-color:currentColor"
  class="high"
  width="10.106444"
  height="21.714767"
  x="27.083683"
  y="4.3834324"
  ry="0" />
<rect
  style="fill:currentColor;fill-opacity:1;stroke:none;stroke-width:4;stroke-linecap:round;stroke-opacity:1;paint-order:stroke fill markers;stop-color:currentColor"
  class="full"
  width="10.106444"
  height="21.714767"
  x="38.496387"
  y="4.3834324"
  ry="0" />
</svg>
